<svg width="37" height="36" viewBox="0 0 37 36" fill="none" xmlns="http://www.w3.org/2000/svg">
<path d="M18.1385 3.375C15.2237 3.375 12.3743 4.23274 9.95075 5.83976C7.52718 7.44677 5.63823 9.73089 4.52278 12.4033C3.40733 15.0756 3.11547 18.0162 3.68412 20.8532C4.25278 23.6902 5.65639 26.2961 7.71748 28.3414C9.77856 30.3868 12.4045 31.7797 15.2633 32.344C18.1222 32.9083 21.0854 32.6187 23.7783 31.5117C26.4713 30.4048 28.7729 28.5303 30.3923 26.1252C32.0117 23.7201 32.8761 20.8926 32.8761 18C32.8719 14.1225 31.3179 10.4049 28.555 7.66309C25.792 4.92125 22.0459 3.37909 18.1385 3.375ZM18.1385 30.375C15.6721 30.375 13.2611 29.6492 11.2104 28.2894C9.15969 26.9297 7.56135 24.9969 6.6175 22.7357C5.67366 20.4745 5.42671 17.9863 5.90787 15.5858C6.38904 13.1852 7.57672 10.9802 9.32071 9.24955C11.0647 7.51888 13.2867 6.34027 15.7057 5.86278C18.1247 5.38529 20.632 5.63036 22.9107 6.56699C25.1893 7.50363 27.1369 9.08976 28.5071 11.1248C29.8774 13.1599 30.6087 15.5525 30.6087 18C30.605 21.2809 29.29 24.4264 26.9521 26.7463C24.6143 29.0663 21.4447 30.3713 18.1385 30.375ZM24.9404 18C24.9404 18.2984 24.821 18.5845 24.6084 18.7955C24.3958 19.0065 24.1075 19.125 23.8068 19.125H15.2066L17.8069 21.7041C17.9122 21.8086 17.9958 21.9327 18.0528 22.0692C18.1098 22.2058 18.1391 22.3522 18.1391 22.5C18.1391 22.6478 18.1098 22.7942 18.0528 22.9308C17.9958 23.0673 17.9122 23.1914 17.8069 23.2959C17.7016 23.4005 17.5765 23.4834 17.4389 23.5399C17.3013 23.5965 17.1538 23.6256 17.0048 23.6256C16.8559 23.6256 16.7084 23.5965 16.5708 23.5399C16.4332 23.4834 16.3081 23.4005 16.2028 23.2959L11.6681 18.7959C11.5627 18.6915 11.4791 18.5674 11.4221 18.4308C11.365 18.2942 11.3357 18.1478 11.3357 18C11.3357 17.8522 11.365 17.7058 11.4221 17.5692C11.4791 17.4326 11.5627 17.3085 11.6681 17.2041L16.2028 12.7041C16.4155 12.493 16.704 12.3744 17.0048 12.3744C17.3057 12.3744 17.5942 12.493 17.8069 12.7041C18.0196 12.9152 18.1391 13.2015 18.1391 13.5C18.1391 13.7985 18.0196 14.0848 17.8069 14.2959L15.2066 16.875H23.8068C24.1075 16.875 24.3958 16.9935 24.6084 17.2045C24.821 17.4155 24.9404 17.7016 24.9404 18Z" fill="white"/>
</svg>
