<svg width="244" height="52" viewBox="0 0 244 52" fill="none" xmlns="http://www.w3.org/2000/svg">
<path d="M0 4C0 1.79086 1.79086 0 4 0H240C242.209 0 244 1.79086 244 4V52H0V4Z" fill="#FF5D5D"/>
<path d="M113.258 27.5273H108.945V34.5938H115.473L116.316 32.5195H117.207L116.82 36H104.961V35.0039L106.742 34.7344V19.5938L104.961 19.3242V18.3281H116.305L116.574 21.8086H115.543L114.91 19.7461H108.945V26.1211H113.258L113.609 24.8789H114.441V28.7578H113.609L113.258 27.5273ZM125.047 24.1289C126.023 24.1289 126.996 24.3203 127.965 24.7031V18.6914L126.172 18.3281V17.3789L129.863 16.5117V34.125C129.863 34.4766 130.059 34.6523 130.449 34.6523C130.848 34.6523 131.344 34.5312 131.938 34.2891L132.184 35.3906C131.066 35.9766 130.23 36.2695 129.676 36.2695C128.871 36.2695 128.344 36.0078 128.094 35.4844C128.008 35.2969 127.965 35.0742 127.965 34.8164C127.379 35.332 126.754 35.7031 126.09 35.9297C125.426 36.1562 124.734 36.2695 124.016 36.2695C123.305 36.2695 122.617 36.1328 121.953 35.8594C121.289 35.5859 120.734 35.1953 120.289 34.6875C119.422 33.6953 118.988 32.293 118.988 30.4805C118.988 28.7461 119.5 27.2891 120.523 26.1094C121.656 24.7891 123.164 24.1289 125.047 24.1289ZM125.047 34.6289C125.836 34.6289 126.809 34.2578 127.965 33.5156V26.8594C127.293 25.9609 126.223 25.5117 124.754 25.5117C123.621 25.5117 122.703 25.9688 122 26.8828C121.344 27.75 121.016 28.8672 121.016 30.2344C121.016 31.4766 121.328 32.4961 121.953 33.293C122.641 34.1836 123.672 34.6289 125.047 34.6289ZM136.039 34.7578L137.539 35.0273V36H132.617V35.0273L134.141 34.7578V26.2266L132.617 25.957V24.9844L136.039 24.1289V34.7578ZM134.07 20.5547C133.945 20.4141 133.844 20.2578 133.766 20.0859C133.688 19.9141 133.648 19.7461 133.648 19.582C133.648 19.4102 133.688 19.2422 133.766 19.0781C133.844 18.9062 133.945 18.75 134.07 18.6094C134.359 18.2969 134.621 18.1406 134.855 18.1406C135.098 18.1406 135.301 18.1836 135.465 18.2695C135.637 18.3555 135.789 18.4688 135.922 18.6094C136.211 18.9297 136.355 19.2148 136.355 19.4648C136.355 19.707 136.312 19.9141 136.227 20.0859C136.148 20.2578 136.047 20.4141 135.922 20.5547C135.625 20.8594 135.352 21.0117 135.102 21.0117C134.859 21.0117 134.66 20.9688 134.504 20.8828C134.348 20.7969 134.203 20.6875 134.07 20.5547ZM141.98 32.4141C141.98 33.9766 142.613 34.7578 143.879 34.7578C144.543 34.7578 145.188 34.4844 145.812 33.9375L146.445 34.7109C145.781 35.2578 145.168 35.6562 144.605 35.9062C144.043 36.1484 143.547 36.2695 143.117 36.2695C142.688 36.2695 142.27 36.1758 141.863 35.9883C141.465 35.8008 141.133 35.5312 140.867 35.1797C140.344 34.5 140.082 33.5352 140.082 32.2852V25.7812H138.594V24.7617L140.082 24.4102V22.8398L141.465 21.457H141.98V24.4102H145.848V25.7812H141.98V32.4141Z" fill="white"/>
<path d="M239.344 18.6782L233.088 13.5391C232.88 13.3682 232.633 13.2326 232.362 13.1401C232.09 13.0476 231.799 13 231.504 13C231.21 13 230.919 13.0476 230.647 13.1401C230.375 13.2326 230.128 13.3682 229.92 13.5391L212.657 27.7203C212.448 27.8905 212.282 28.0932 212.169 28.3165C212.057 28.5397 211.999 28.7792 212 29.0209V34.1601C212 34.648 212.236 35.116 212.656 35.4611C213.076 35.8061 213.646 36 214.24 36H220.497C220.791 36.0008 221.083 35.9535 221.354 35.8609C221.626 35.7683 221.873 35.6323 222.08 35.4607L239.344 21.2806C239.552 21.1097 239.717 20.9068 239.829 20.6836C239.942 20.4603 240 20.221 240 19.9794C240 19.7377 239.942 19.4984 239.829 19.2752C239.717 19.0519 239.552 18.8491 239.344 18.6782ZM214.703 28.6403L226.56 18.9013L228.897 20.8206L217.04 30.5584L214.703 28.6403ZM214.24 30.8608L218.257 34.1601H214.24V30.8608ZM220.96 33.7794L218.623 31.8601L230.48 22.1212L232.817 24.0404L220.96 33.7794ZM234.4 22.7399L228.144 17.6007L231.504 14.8408L237.76 19.9788L234.4 22.7399Z" fill="white"/>
</svg>
