<svg width="243" height="52" viewBox="0 0 243 52" fill="none" xmlns="http://www.w3.org/2000/svg">
<path d="M0 4C0 1.79086 1.79086 0 4 0H238.855C241.064 0 242.855 1.79086 242.855 4V52H0V4Z" fill="#FF5D5D"/>
<path d="M114.398 33.0039L116.016 32.7344L114.164 28.1758H107.133L105.293 32.7344L106.945 33.0039V34H101.918V33.0039L103.77 32.7344L109.922 17.5234L109.43 16.3633L111.328 15.5664L118.336 32.7344L120.223 33.0039V34H114.398V33.0039ZM107.684 26.7578H113.648L110.66 19.2344L107.684 26.7578ZM127.055 22.1289C128.031 22.1289 129.004 22.3203 129.973 22.7031V16.6914L128.18 16.3281V15.3789L131.871 14.5117V32.125C131.871 32.4766 132.066 32.6523 132.457 32.6523C132.855 32.6523 133.352 32.5312 133.945 32.2891L134.191 33.3906C133.074 33.9766 132.238 34.2695 131.684 34.2695C130.879 34.2695 130.352 34.0078 130.102 33.4844C130.016 33.2969 129.973 33.0742 129.973 32.8164C129.387 33.332 128.762 33.7031 128.098 33.9297C127.434 34.1562 126.742 34.2695 126.023 34.2695C125.312 34.2695 124.625 34.1328 123.961 33.8594C123.297 33.5859 122.742 33.1953 122.297 32.6875C121.43 31.6953 120.996 30.293 120.996 28.4805C120.996 26.7461 121.508 25.2891 122.531 24.1094C123.664 22.7891 125.172 22.1289 127.055 22.1289ZM127.055 32.6289C127.844 32.6289 128.816 32.2578 129.973 31.5156V24.8594C129.301 23.9609 128.23 23.5117 126.762 23.5117C125.629 23.5117 124.711 23.9688 124.008 24.8828C123.352 25.75 123.023 26.8672 123.023 28.2344C123.023 29.4766 123.336 30.4961 123.961 31.293C124.648 32.1836 125.68 32.6289 127.055 32.6289ZM141.07 22.1289C142.047 22.1289 143.02 22.3203 143.988 22.7031V16.6914L142.195 16.3281V15.3789L145.887 14.5117V32.125C145.887 32.4766 146.082 32.6523 146.473 32.6523C146.871 32.6523 147.367 32.5312 147.961 32.2891L148.207 33.3906C147.09 33.9766 146.254 34.2695 145.699 34.2695C144.895 34.2695 144.367 34.0078 144.117 33.4844C144.031 33.2969 143.988 33.0742 143.988 32.8164C143.402 33.332 142.777 33.7031 142.113 33.9297C141.449 34.1562 140.758 34.2695 140.039 34.2695C139.328 34.2695 138.641 34.1328 137.977 33.8594C137.312 33.5859 136.758 33.1953 136.312 32.6875C135.445 31.6953 135.012 30.293 135.012 28.4805C135.012 26.7461 135.523 25.2891 136.547 24.1094C137.68 22.7891 139.188 22.1289 141.07 22.1289ZM141.07 32.6289C141.859 32.6289 142.832 32.2578 143.988 31.5156V24.8594C143.316 23.9609 142.246 23.5117 140.777 23.5117C139.645 23.5117 138.727 23.9688 138.023 24.8828C137.367 25.75 137.039 26.8672 137.039 28.2344C137.039 29.4766 137.352 30.4961 137.977 31.293C138.664 32.1836 139.695 32.6289 141.07 32.6289Z" fill="white"/>
<path d="M217.529 15C215.279 15 213.08 15.7148 211.209 17.054C209.339 18.3931 207.881 20.2966 207.02 22.5235C206.159 24.7505 205.934 27.201 206.372 29.5652C206.811 31.9293 207.895 34.1009 209.486 35.8054C211.076 37.5098 213.103 38.6706 215.31 39.1408C217.516 39.6111 219.803 39.3697 221.882 38.4473C223.96 37.5248 225.737 35.9627 226.987 33.9585C228.237 31.9543 228.904 29.598 228.904 27.1875C228.901 23.9562 227.701 20.8583 225.569 18.5734C223.436 16.2885 220.545 15.0034 217.529 15ZM217.529 37.5C215.625 37.5 213.764 36.8952 212.182 35.762C210.599 34.6289 209.365 33.0183 208.637 31.1339C207.908 29.2496 207.717 27.1761 208.089 25.1756C208.46 23.1752 209.377 21.3377 210.723 19.8955C212.069 18.4532 213.784 17.4711 215.651 17.0732C217.518 16.6752 219.453 16.8795 221.212 17.66C222.971 18.4405 224.474 19.7623 225.532 21.4582C226.589 23.1541 227.154 25.1479 227.154 27.1875C227.151 29.9216 226.136 32.5428 224.332 34.4761C222.527 36.4094 220.081 37.4969 217.529 37.5ZM222.779 27.1875C222.779 27.4361 222.687 27.6746 222.523 27.8504C222.358 28.0262 222.136 28.125 221.904 28.125H218.404V31.875C218.404 32.1236 218.312 32.3621 218.148 32.5379C217.983 32.7137 217.761 32.8125 217.529 32.8125C217.297 32.8125 217.074 32.7137 216.91 32.5379C216.746 32.3621 216.654 32.1236 216.654 31.875V28.125H213.154C212.922 28.125 212.699 28.0262 212.535 27.8504C212.371 27.6746 212.279 27.4361 212.279 27.1875C212.279 26.9389 212.371 26.7004 212.535 26.5246C212.699 26.3488 212.922 26.25 213.154 26.25H216.654V22.5C216.654 22.2514 216.746 22.0129 216.91 21.8371C217.074 21.6613 217.297 21.5625 217.529 21.5625C217.761 21.5625 217.983 21.6613 218.148 21.8371C218.312 22.0129 218.404 22.2514 218.404 22.5V26.25H221.904C222.136 26.25 222.358 26.3488 222.523 26.5246C222.687 26.7004 222.779 26.9389 222.779 27.1875Z" fill="white"/>
</svg>
