<svg width="243" height="52" viewBox="0 0 243 52" fill="none" xmlns="http://www.w3.org/2000/svg">
<path d="M0 4C0 1.79086 1.79086 0 4 0H239C241.209 0 243 1.79086 243 4V52H0V4Z" fill="#FF5D5D"/>
<path d="M79.5116 31.875C80.0897 31.875 80.6132 31.8203 81.0819 31.7109C81.5585 31.5938 81.9686 31.4141 82.3124 31.1719C83.0468 30.6641 83.4139 29.9219 83.4139 28.9453C83.4139 28.1172 83.1444 27.4375 82.6053 26.9062C82.035 26.3594 81.1093 25.8086 79.828 25.2539C78.5546 24.6914 77.5819 24.1914 76.91 23.7539C76.246 23.3086 75.7225 22.8594 75.3397 22.4062C74.6444 21.6094 74.2968 20.6445 74.2968 19.5117C74.2968 18.1992 74.8632 17.1172 75.996 16.2656C77.0507 15.4609 78.328 15.0586 79.828 15.0586C81.0077 15.0586 82.1874 15.2734 83.3671 15.7031C83.8593 15.8984 84.3046 16.1133 84.703 16.3477L84.2928 19.4766H83.3085C83.3085 18.3984 83.0155 17.6172 82.4296 17.1328C81.8436 16.6406 80.996 16.3945 79.8866 16.3945C78.3553 16.3945 77.3085 16.8945 76.746 17.8945C76.5663 18.2227 76.4764 18.5898 76.4764 18.9961C76.4764 19.4023 76.535 19.7695 76.6522 20.0977C76.7694 20.418 76.996 20.7344 77.3319 21.0469C77.9882 21.6797 79.2225 22.375 81.035 23.1328C83.5663 24.2109 85.0428 25.4844 85.4647 26.9531C85.5897 27.4141 85.6522 27.9062 85.6522 28.4297C85.6522 28.9453 85.5624 29.4375 85.3827 29.9062C85.2108 30.3672 84.9725 30.7812 84.6678 31.1484C84.3632 31.5078 84.0077 31.8203 83.6014 32.0859C83.203 32.3516 82.7772 32.5703 82.3241 32.7422C80.3163 33.5234 78.2069 33.4609 75.996 32.5547C75.1913 32.2188 74.4803 31.8086 73.8632 31.3242L74.3553 27.9609H75.3514C75.3514 29.5312 75.8475 30.625 76.8397 31.2422C77.5194 31.6641 78.41 31.875 79.5116 31.875ZM94.5468 22.6523C93.3671 22.6523 92.1483 23.0664 90.8905 23.8945V31.7578L92.3788 32.0273V33H87.4569V32.0273L88.9803 31.7578V15.6211L87.4569 15.3281V14.3789L90.8905 13.5117V22.6523C91.6718 22.1133 92.4374 21.7266 93.1874 21.4922C93.9452 21.25 94.5897 21.1289 95.121 21.1289C95.6522 21.1289 96.1288 21.2031 96.5507 21.3516C96.9725 21.5 97.3319 21.7266 97.6288 22.0312C98.2538 22.6641 98.5663 23.5703 98.5663 24.75V31.7578L100.055 32.0273V33H95.1444V32.0273L96.6561 31.7578V24.9727C96.6561 23.4258 95.953 22.6523 94.5468 22.6523ZM101.859 27.3047C101.859 26.4062 102.012 25.5703 102.316 24.7969C102.629 24.0234 103.051 23.3672 103.582 22.8281C104.676 21.6953 106.023 21.1289 107.625 21.1289C109.484 21.1289 110.937 21.6797 111.984 22.7812C112.976 23.8359 113.473 25.2148 113.473 26.918C113.473 28.8164 112.91 30.3594 111.785 31.5469C110.691 32.6953 109.34 33.2695 107.73 33.2695C105.894 33.2695 104.441 32.7031 103.371 31.5703C102.363 30.5078 101.859 29.0859 101.859 27.3047ZM104.859 23.8125C104.547 24.2109 104.308 24.6797 104.144 25.2188C103.988 25.7578 103.91 26.3438 103.91 26.9766C103.91 27.6016 103.98 28.2148 104.121 28.8164C104.269 29.4102 104.496 29.9375 104.801 30.3984C105.473 31.3984 106.441 31.8984 107.707 31.8984C108.894 31.8984 109.816 31.5078 110.473 30.7266C111.121 29.9609 111.445 28.9258 111.445 27.6211C111.445 25.3086 110.785 23.7539 109.465 22.957C108.973 22.6602 108.391 22.5117 107.719 22.5117C107.047 22.5117 106.48 22.6289 106.019 22.8633C105.558 23.0898 105.172 23.4062 104.859 23.8125ZM129.34 33H127.711L124.758 24.7148L121.699 33H120.07L115.957 22.6523L114.621 22.3828V21.4102H119.461V22.3828L118.101 22.6523L121.312 31.1016L124.078 23.2266L123.738 22.6523L122.25 22.3828V21.4102H127.359V22.3828L125.918 22.6523L128.953 31.1016C128.953 31.1016 129.976 28.2656 132.023 22.5938L130.664 22.3828V21.4102H134.742V22.3828L133.43 22.6523L129.34 33Z" fill="white"/>
</svg>
